<?xml version="1.0" standalone="no"?>
<!DOCTYPE svg PUBLIC "-//W3C//DTD SVG 20010904//EN"
 "http://www.w3.org/TR/2001/REC-SVG-20010904/DTD/svg10.dtd">
<svg version="1.0" xmlns="http://www.w3.org/2000/svg"
 width="1006.000000pt" height="1024.000000pt" viewBox="0 0 1006.000000 1024.000000"
 preserveAspectRatio="xMidYMid meet">

<g transform="translate(0.000000,1024.000000) scale(0.100000,-0.100000)"
fill="#000000" stroke="none">
<path d="M4690 10233 c-1090 -77 -1832 -387 -2485 -1038 -230 -229 -419 -483
-548 -735 -150 -295 -219 -546 -248 -896 -13 -167 -6 -1031 10 -1234 6 -69 13
-165 17 -213 l7 -88 -58 60 c-72 76 -122 101 -201 101 -79 0 -146 -32 -206
-99 -67 -75 -83 -128 -81 -276 5 -371 239 -1502 368 -1781 86 -186 261 -282
392 -216 l42 22 9 -53 c6 -28 31 -169 57 -312 136 -765 274 -1258 432 -1545
184 -333 772 -1044 1163 -1407 333 -310 621 -438 1120 -498 183 -22 718 -31
915 -16 589 46 901 157 1233 435 253 213 773 798 1065 1198 170 234 254 397
347 676 105 316 232 880 316 1407 9 61 18 111 19 113 1 1 22 -7 46 -18 129
-58 296 24 377 186 139 277 381 1431 382 1820 0 126 -1 133 -31 192 -52 105
-156 175 -258 175 -72 0 -108 -19 -195 -102 l-69 -66 7 45 c40 293 55 1259 25
1580 -52 551 -314 1065 -779 1531 -670 671 -1396 976 -2498 1049 -139 9 -580
11 -692 3z m27 -39 c-3 -3 -12 -4 -19 -1 -8 3 -5 6 6 6 11 1 17 -2 13 -5z m40
0 c-3 -3 -12 -4 -19 -1 -8 3 -5 6 6 6 11 1 17 -2 13 -5z m566 -1 c-7 -2 -21
-2 -30 0 -10 3 -4 5 12 5 17 0 24 -2 18 -5z m-755 -10 c-10 -2 -26 -2 -35 0
-10 3 -2 5 17 5 19 0 27 -2 18 -5z m949 1 c-3 -3 -12 -4 -19 -1 -8 3 -5 6 6 6
11 1 17 -2 13 -5z m-1070 -10 c-3 -3 -12 -4 -19 -1 -8 3 -5 6 6 6 11 1 17 -2
13 -5z m1181 -1 c-10 -2 -28 -2 -40 0 -13 2 -5 4 17 4 22 1 32 -1 23 -4z
m-1260 -10 c-10 -2 -26 -2 -35 0 -10 3 -2 5 17 5 19 0 27 -2 18 -5z m1355 0
c-7 -2 -19 -2 -25 0 -7 3 -2 5 12 5 14 0 19 -2 13 -5z m-1440 -10 c-7 -2 -19
-2 -25 0 -7 3 -2 5 12 5 14 0 19 -2 13 -5z m1524 1 c-3 -3 -12 -4 -19 -1 -8 3
-5 6 6 6 11 1 17 -2 13 -5z m-1584 -11 c-7 -2 -19 -2 -25 0 -7 3 -2 5 12 5 14
0 19 -2 13 -5z m1650 0 c-7 -2 -19 -2 -25 0 -7 3 -2 5 12 5 14 0 19 -2 13 -5z
m124 -19 c-3 -3 -12 -4 -19 -1 -8 3 -5 6 6 6 11 1 17 -2 13 -5z m-2000 -20
c-3 -3 -12 -4 -19 -1 -8 3 -5 6 6 6 11 1 17 -2 13 -5z m-50 -10 c-3 -3 -12 -4
-19 -1 -8 3 -5 6 6 6 11 1 17 -2 13 -5z m2200 0 c-3 -3 -12 -4 -19 -1 -8 3 -5
6 6 6 11 1 17 -2 13 -5z m-2457 -64 c-8 -5 -22 -9 -30 -9 -10 0 -8 3 5 9 27
12 43 12 25 0z m3284 -219 c4 -5 -3 -7 -14 -4 -23 6 -26 13 -6 13 8 0 17 -4
20 -9z m156 -84 c0 -1 -12 -3 -28 -3 -15 -1 -21 1 -14 3 6 3 9 9 6 15 -4 6 2
5 15 -1 11 -7 21 -13 21 -14z m-4150 9 c0 -2 -9 -6 -20 -9 -11 -3 -18 -1 -14
4 5 9 34 13 34 5z m-210 -119 c0 -2 -10 -12 -22 -23 l-23 -19 19 23 c18 21 26
27 26 19z m4602 -52 c0 -5 -5 -10 -11 -11 -8 -2 -7 -1 0 3 8 4 7 8 -2 15 -11
8 -11 9 -1 6 8 -2 14 -8 14 -13z m-4785 -90 c0 -8 -4 -12 -9 -9 -5 3 -6 10 -3
15 9 13 12 11 12 -6z m5164 -212 c13 -16 12 -17 -3 -4 -10 7 -18 15 -18 17 0
8 8 3 21 -13z m29 -27 c0 -2 -8 -10 -17 -17 -16 -13 -17 -12 -4 4 13 16 21 21
21 13z m-5630 -150 c0 -2 -8 -10 -17 -17 -16 -13 -17 -12 -4 4 13 16 21 21 21
13z m3370 -36 c436 -17 703 -51 1025 -131 350 -87 597 -194 772 -333 37 -30
71 -52 77 -49 5 3 6 2 3 -4 -4 -5 2 -19 11 -29 47 -50 134 -176 166 -241 90
-181 159 -421 177 -617 19 -197 1 -544 -46 -891 -26 -191 -36 -169 118 -247
72 -37 164 -86 202 -109 143 -87 290 -224 358 -336 42 -68 79 -90 167 -100
l59 -6 43 49 c76 86 121 126 162 145 82 37 166 16 250 -61 86 -80 107 -173 87
-390 -14 -145 -83 -558 -140 -840 -77 -382 -191 -777 -252 -871 -47 -74 -122
-136 -185 -155 -62 -18 -99 -13 -163 22 -24 13 -47 24 -51 24 -4 0 -13 -35
-19 -77 -87 -554 -217 -1140 -326 -1468 -118 -355 -219 -530 -543 -935 -287
-358 -670 -773 -867 -938 -380 -319 -798 -435 -1575 -435 -804 -1 -1218 122
-1615 480 -215 194 -535 547 -805 887 -259 327 -379 509 -465 706 -124 286
-254 807 -375 1500 -22 129 -43 245 -45 257 l-5 22 -63 -29 c-34 -17 -78 -30
-97 -30 -50 0 -132 42 -184 94 -74 73 -113 170 -205 501 -116 421 -251 1186
-251 1425 0 170 82 290 218 321 96 23 168 -13 267 -131 l59 -72 51 4 c81 7
137 40 180 106 113 171 260 288 544 435 75 39 137 71 139 73 2 1 -6 76 -17
167 -71 560 -66 872 20 1166 86 296 179 472 323 616 89 88 153 134 290 206
260 137 686 244 1176 295 293 30 903 41 1350 24z m-3460 -64 c0 -2 -8 -10 -17
-17 -16 -13 -17 -12 -4 4 13 16 21 21 21 13z m6031 -83 c13 -16 12 -17 -3 -4
-10 7 -18 15 -18 17 0 8 8 3 21 -13z m-6125 -32 c-11 -12 -15 -25 -10 -33 4
-7 4 -10 -1 -6 -4 4 -15 2 -24 -5 -14 -11 -15 -10 -1 8 24 34 43 55 48 55 3 0
-3 -9 -12 -19z m6165 -18 c13 -16 12 -17 -3 -4 -10 7 -18 15 -18 17 0 8 8 3
21 -13z m-6217 -61 c3 -5 -1 -9 -9 -9 -8 0 -12 4 -9 9 3 4 7 8 9 8 2 0 6 -4 9
-8z m-201 -312 c-3 -12 -8 -19 -11 -16 -5 6 5 36 12 36 2 0 2 -9 -1 -20z
m-182 -441 c-5 -13 -10 -19 -10 -12 -1 15 10 45 15 40 3 -2 0 -15 -5 -28z
m-18 -64 c-3 -9 -8 -14 -10 -11 -3 3 -2 9 2 15 9 16 15 13 8 -4z m7114 -1527
c-2 -18 -4 -6 -4 27 0 33 2 48 4 33 2 -15 2 -42 0 -60z m-7170 -115 c-2 -16
-4 -5 -4 22 0 28 2 40 4 28 2 -13 2 -35 0 -50z m7161 -90 c-3 -25 -4 -25 -18
-8 -9 11 -10 16 -2 11 9 -5 12 4 13 36 2 30 3 35 6 16 2 -16 3 -40 1 -55z
m-7151 -70 c-3 -10 -5 -4 -5 12 0 17 2 24 5 18 2 -7 2 -21 0 -30z m7140 -30
c-3 -10 -5 -2 -5 17 0 19 2 27 5 18 2 -10 2 -26 0 -35z"/>
<path d="M3014 5956 c-94 -23 -199 -91 -482 -313 -233 -183 -240 -191 -258
-345 -7 -64 -1 -69 39 -38 103 81 485 283 630 332 81 28 108 32 229 36 158 5
227 -2 658 -65 258 -38 342 -46 465 -47 133 -1 154 1 184 19 54 32 70 62 73
135 l3 64 -39 14 c-65 21 -465 98 -736 141 -502 80 -657 93 -766 67z"/>
<path d="M6690 5946 c-399 -55 -907 -144 -1072 -188 l-78 -20 0 -57 c0 -76 23
-120 80 -149 43 -23 51 -24 200 -18 85 3 232 17 325 31 94 15 244 37 335 51
91 14 237 27 325 31 239 9 322 -10 560 -127 119 -58 329 -178 428 -244 l27
-18 0 39 c0 47 -26 150 -45 180 -28 42 -369 311 -530 418 -143 94 -267 110
-555 71z"/>
<path d="M1081 5921 c-44 -44 -57 -215 -42 -556 14 -294 34 -504 57 -585 20
-70 62 -153 123 -243 70 -104 97 -160 126 -262 30 -102 53 -145 96 -176 71
-50 153 -29 198 51 35 62 26 116 -48 298 -69 171 -91 251 -91 333 0 60 6 71
62 113 69 50 62 79 -72 305 -63 107 -79 146 -127 299 -85 275 -136 384 -199
423 -39 24 -59 24 -83 0z m73 -32 c53 -42 111 -169 180 -395 l43 -141 -56 -18
c-134 -42 -164 -74 -162 -169 2 -79 26 -244 36 -254 4 -4 5 11 1 33 -3 22 -9
92 -12 155 -6 109 -5 117 16 143 27 34 59 51 132 70 l57 15 92 -155 c50 -85
96 -170 102 -189 12 -39 -1 -59 -57 -89 -44 -24 -56 -51 -56 -124 0 -78 28
-184 85 -316 80 -187 91 -245 56 -299 -38 -57 -91 -70 -145 -36 -41 25 -70 77
-96 175 -22 81 -51 138 -153 298 -93 147 -118 248 -137 567 -13 214 -12 623 1
680 10 44 25 70 39 70 4 0 19 -9 34 -21z"/>
<path d="M8919 5925 c-59 -32 -121 -159 -208 -430 -54 -164 -73 -208 -141
-325 -117 -201 -121 -229 -42 -287 51 -38 52 -40 52 -112 0 -82 -18 -148 -90
-334 -32 -84 -61 -168 -65 -188 -9 -49 20 -113 70 -157 44 -39 69 -38 125 7
47 37 74 88 107 194 20 65 50 127 113 230 47 78 95 165 107 192 51 122 72 321
80 770 6 348 2 396 -38 436 -22 22 -35 23 -70 4z m77 -113 c9 -74 -2 -610 -16
-772 -21 -232 -46 -312 -150 -478 -91 -146 -116 -196 -136 -277 -20 -79 -66
-151 -112 -178 -33 -20 -34 -20 -60 0 -15 11 -38 35 -50 54 -33 48 -27 86 47
268 70 174 91 250 91 339 0 77 -8 93 -64 132 -25 16 -48 39 -51 50 -8 24 27
104 89 205 23 39 55 91 70 118 20 36 33 47 51 47 40 0 130 -38 156 -66 23 -25
24 -30 23 -182 l-2 -157 13 90 c18 125 18 210 0 245 -17 33 -86 72 -158 91
l-46 11 56 162 c69 201 132 335 175 371 l32 27 17 -21 c10 -12 21 -47 25 -79z"/>
<path d="M3489 5420 c-206 -19 -375 -80 -534 -194 -80 -58 -175 -143 -175
-158 0 -19 26 -4 83 48 88 79 227 169 319 204 134 52 205 63 398 64 275 1 363
-28 552 -180 37 -30 69 -54 72 -54 24 0 -30 77 -102 145 -113 106 -330 150
-613 125z"/>
<path d="M6316 5419 c-204 -23 -310 -80 -409 -217 -38 -54 -36 -76 4 -40 63
56 180 136 235 160 101 46 200 62 374 63 298 0 485 -68 704 -259 70 -62 96
-77 96 -58 0 12 -78 85 -159 146 -158 121 -343 187 -578 206 -139 11 -166 11
-267 -1z"/>
<path d="M3345 5236 c-139 -27 -287 -103 -393 -201 -33 -30 -81 -64 -106 -76
-84 -37 -51 -49 72 -28 l65 12 36 -43 c49 -60 168 -135 265 -167 75 -25 92
-27 246 -27 129 1 189 6 275 23 248 50 260 51 372 42 130 -11 143 -5 114 52
-85 168 -304 337 -513 398 -94 27 -327 35 -433 15z m5 -122 c0 -3 -5 -25 -11
-49 -25 -99 33 -224 129 -278 100 -56 209 -46 307 29 68 52 104 171 81 272
-10 43 -1 42 112 -14 71 -35 114 -66 177 -126 76 -72 133 -143 123 -153 -2 -2
-51 1 -110 7 -100 9 -114 8 -269 -22 -299 -57 -476 -52 -627 20 -71 33 -154
106 -173 152 -11 28 -10 32 12 49 72 57 249 137 249 113z m214 -12 c6 -11 -34
-70 -53 -77 -21 -8 -34 10 -27 38 8 32 66 61 80 39z m94 -44 c7 -7 12 -22 12
-35 0 -27 -42 -42 -65 -23 -28 23 -11 70 25 70 9 0 21 -5 28 -12z"/>
<path d="M6425 5243 c-125 -18 -256 -69 -365 -143 -135 -93 -304 -308 -262
-334 4 -2 58 0 120 6 105 10 119 9 230 -16 452 -100 711 -67 897 116 l70 69
54 -10 c69 -14 121 -14 121 -1 0 6 -21 20 -47 31 -26 11 -72 44 -103 73 -100
95 -248 169 -403 202 -63 13 -239 17 -312 7z m-175 -147 c-13 -35 -13 -110 0
-158 25 -90 150 -188 240 -188 169 0 307 162 271 320 -5 25 -8 46 -6 48 6 7
193 -85 229 -113 l35 -26 -20 -34 c-44 -75 -139 -139 -259 -177 -65 -20 -96
-23 -225 -23 -129 0 -173 5 -320 34 -160 31 -176 33 -270 24 -55 -5 -102 -8
-104 -7 -7 6 70 102 122 151 69 66 148 116 239 153 40 16 74 27 76 26 1 -2 -2
-15 -8 -30z m195 -18 c-8 -28 -53 -70 -66 -63 -30 19 7 85 48 85 20 0 23 -4
18 -22z m115 -53 c0 -32 -35 -43 -61 -19 -25 23 -24 43 4 53 30 12 57 -4 57
-34z"/>
<path d="M4348 3468 c-74 -89 -97 -125 -136 -205 -35 -74 -37 -83 -37 -178 0
-88 3 -106 26 -150 34 -64 109 -126 179 -147 93 -28 110 -30 110 -14 0 8 -15
17 -37 21 -54 9 -143 51 -177 83 -50 47 -76 117 -76 202 1 121 46 222 162 360
51 61 60 80 38 80 -4 0 -27 -24 -52 -52z"/>
<path d="M5680 3507 c0 -8 9 -22 21 -33 35 -31 115 -146 146 -209 105 -210 46
-396 -142 -454 -37 -12 -78 -21 -91 -21 -24 0 -32 -14 -14 -25 16 -10 142 24
186 50 23 14 58 43 78 66 117 137 77 348 -108 572 -55 66 -76 80 -76 54z"/>
<path d="M5474 3015 c-34 -7 -77 -21 -95 -30 -162 -82 -118 -140 101 -133 85
3 113 8 148 26 134 70 18 173 -154 137z"/>
<path d="M4458 3005 c-66 -37 -53 -90 30 -128 87 -39 315 -33 329 9 6 19 -50
66 -117 98 -78 37 -196 47 -242 21z"/>
<path d="M4890 2842 c0 -14 71 -43 120 -49 52 -6 148 11 176 32 30 21 12 26
-41 10 -61 -19 -148 -18 -200 0 -46 17 -55 18 -55 7z"/>
<path d="M4565 2116 c-33 -8 -136 -48 -229 -91 -93 -42 -198 -87 -233 -100
-85 -32 -210 -57 -245 -50 -17 4 -28 2 -28 -4 0 -6 -7 -11 -16 -11 -20 0 -13
-24 8 -28 9 -2 79 -65 155 -140 288 -286 529 -399 929 -434 281 -24 609 34
835 148 37 18 102 60 145 93 73 55 247 223 309 298 14 17 35 33 47 35 25 4 37
28 14 28 -9 0 -16 4 -16 8 0 4 -30 8 -67 8 -89 -1 -174 26 -398 126 -308 138
-336 142 -528 76 -166 -56 -224 -57 -397 -1 -150 49 -206 56 -285 39z m209
-51 c33 -16 36 -20 20 -25 -12 -5 -20 -2 -22 6 -2 8 -8 14 -13 14 -6 0 -7 -5
-3 -12 5 -8 2 -9 -10 -5 -10 4 -42 7 -73 7 -44 0 -54 3 -50 14 4 10 -3 16 -21
19 -15 3 9 4 53 3 55 -1 92 -8 119 -21z m583 8 c-9 -2 -14 -9 -11 -15 4 -6 -3
-8 -17 -6 -18 2 -24 -2 -23 -15 2 -13 -1 -15 -11 -7 -14 12 -48 3 -39 -11 3
-5 2 -9 -3 -10 -4 0 -22 -2 -40 -3 -17 -1 -38 -7 -45 -12 -19 -15 -148 -15
-181 -1 -25 11 -17 12 65 13 79 1 108 7 193 37 55 19 107 35 115 35 10 0 9 -2
-3 -5z m-53 -72 c-2 -3 -12 3 -22 13 -16 17 -16 18 5 5 12 -7 20 -15 17 -18z
m392 -1 c32 -17 48 -28 35 -24 -17 5 -21 3 -16 -6 5 -9 4 -11 -4 -6 -6 4 -9
12 -6 17 4 5 0 9 -7 9 -7 0 -26 9 -43 20 -43 28 -28 25 41 -10z m-1298 6 c-7
-8 -17 -12 -22 -9 -4 3 -2 9 5 14 22 13 31 11 17 -5z m-108 -46 c-8 -5 -19
-10 -25 -10 -5 0 -3 5 5 10 8 5 20 10 25 10 6 0 3 -5 -5 -10z m-156 -87 c-15
-7 -33 -12 -39 -9 -7 2 -18 0 -26 -5 -9 -6 0 -7 27 -5 23 2 48 0 55 -5 17 -12
-117 -10 -146 2 l-20 8 20 2 c31 3 38 5 68 17 35 15 47 15 27 1 -12 -8 -11 -9
5 -6 11 2 19 8 18 14 -1 6 6 9 18 6 18 -5 17 -7 -7 -20z m1814 11 c6 -1 19 -2
27 -2 8 -1 15 -10 15 -19 0 -14 -2 -15 -9 -4 -5 7 -19 14 -32 15 -12 0 -24 8
-26 16 -3 9 -1 11 4 5 4 -5 14 -10 21 -11z m42 -39 c14 -1 35 2 47 6 14 5 25
4 29 -3 4 -7 3 -8 -4 -4 -7 4 -12 2 -12 -3 0 -16 -82 -12 -110 5 l-25 15 25
-6 c14 -4 36 -8 50 -10z m-1487 -2 c-35 -2 -91 -2 -125 0 -35 2 -7 3 62 3 69
0 97 -1 63 -3z m1167 -6 c25 -2 -20 -4 -100 -5 -80 -1 -140 2 -134 6 11 6 125
6 234 -1z m-1012 -4 c-10 -2 -26 -2 -35 0 -10 3 -2 5 17 5 19 0 27 -2 18 -5z
m79 -9 c-3 -3 -12 -4 -19 -1 -8 3 -5 6 6 6 11 1 17 -2 13 -5z m671 -1 c-10 -2
-26 -2 -35 0 -10 3 -2 5 17 5 19 0 27 -2 18 -5z m-1474 -19 c6 2 8 1 4 -1 -15
-8 -8 -22 7 -16 10 3 15 0 13 -8 -2 -7 3 -13 11 -14 8 0 16 -6 19 -14 3 -9 0
-11 -8 -6 -8 5 -11 4 -7 -2 4 -6 19 -8 34 -6 21 3 24 2 14 -5 -12 -9 -12 -13
2 -27 10 -9 17 -21 17 -27 0 -13 -96 78 -122 117 -12 17 -15 25 -8 18 7 -6 18
-10 24 -9z m843 10 c-3 -3 -12 -4 -19 -1 -8 3 -5 6 6 6 11 1 17 -2 13 -5z
m570 0 c-3 -3 -12 -4 -19 -1 -8 3 -5 6 6 6 11 1 17 -2 13 -5z m-1243 -16 c50
-1 50 -2 -14 -7 -40 -4 -65 -11 -65 -18 0 -20 -14 -26 -30 -13 -9 7 -14 19
-11 27 3 8 2 11 -3 8 -5 -3 -13 0 -17 6 -5 9 5 10 41 6 26 -4 71 -8 99 -9z
m804 1 c-16 -10 9 -21 32 -14 11 4 20 2 20 -4 0 -7 32 -12 83 -13 l82 -2 -74
-3 c-41 -2 -81 -1 -90 3 -9 3 -29 8 -46 10 -16 2 -50 9 -75 17 l-45 13 62 0
c33 -1 56 -4 51 -7z m1207 -1 c-11 -7 -26 -13 -33 -14 -8 -2 -17 -6 -20 -10
-4 -4 0 -5 10 -1 21 8 31 -3 17 -20 -23 -28 1 -11 37 25 36 36 36 36 -5 -15
-42 -52 -66 -61 -90 -36 -10 11 -8 13 13 7 14 -3 26 -2 26 3 0 13 -53 10 -57
-4 -5 -13 31 -36 41 -26 3 3 6 2 6 -3 0 -12 -21 -34 -32 -34 -4 0 -4 8 -1 17
5 12 2 15 -8 11 -11 -4 -15 2 -14 25 0 25 5 32 25 38 21 5 18 7 -15 8 -22 1
-69 5 -105 10 l-65 8 90 4 c50 2 107 4 127 4 21 1 41 5 45 8 3 4 11 7 17 7 6
0 2 -6 -9 -12z m-1828 -4 c-3 -3 -12 -4 -19 -1 -8 3 -5 6 6 6 11 1 17 -2 13
-5z m146 -1 c-7 -2 -19 -2 -25 0 -7 3 -2 5 12 5 14 0 19 -2 13 -5z m145 0
c-21 -2 -55 -2 -75 0 -21 2 -4 4 37 4 41 0 58 -2 38 -4z m679 1 c-3 -3 -12 -4
-19 -1 -8 3 -5 6 6 6 11 1 17 -2 13 -5z m262 -9 c-8 -7 -108 -9 -116 -2 -3 4
22 7 57 7 35 0 61 -2 59 -5z m288 -2 c-20 -2 -52 -2 -70 0 -17 2 0 4 38 4 39
0 53 -2 32 -4z m-640 -9 c-3 -3 -12 -4 -19 -1 -8 3 -5 6 6 6 11 1 17 -2 13 -5z
m216 -1 c-7 -2 -19 -2 -25 0 -7 3 -2 5 12 5 14 0 19 -2 13 -5z m-56 -9 c-3 -3
-12 -4 -19 -1 -8 3 -5 6 6 6 11 1 17 -2 13 -5z m-432 -25 c14 -6 9 -7 -15 -3
-19 4 -44 11 -55 15 -14 6 -9 7 15 3 19 -4 44 -11 55 -15z m382 15 c-3 -3 -12
-4 -19 -1 -8 3 -5 6 6 6 11 1 17 -2 13 -5z m-74 -21 c3 -5 -6 -9 -20 -10 -19
-1 -22 1 -12 8 17 11 26 11 32 2z m-108 -18 c6 -2 -31 -3 -82 -3 -51 1 -90 5
-88 8 4 7 150 2 170 -5z m-1000 -85 c10 -11 16 -20 13 -20 -3 0 -13 9 -23 20
-10 11 -16 20 -13 20 3 0 13 -9 23 -20z m138 -73 c4 -10 11 -15 17 -12 5 3 10
2 10 -3 0 -5 17 -21 37 -35 21 -15 31 -27 23 -28 -8 -1 -4 -5 10 -9 19 -6 20
-8 6 -9 -24 -1 -88 38 -81 50 4 5 0 6 -8 3 -8 -3 -18 0 -23 7 -5 8 -3 10 6 4
8 -5 11 -4 6 3 -4 6 -12 9 -19 6 -7 -2 -26 8 -43 23 -16 16 -23 22 -13 15 9
-7 26 -14 38 -17 18 -3 20 -1 11 15 -5 10 -10 22 -10 25 0 11 26 -19 33 -38z
m1707 30 c0 -2 -10 -12 -22 -23 l-23 -19 19 23 c18 21 26 27 26 19z m-51 -36
c2 -1 -2 -8 -9 -16 -10 -12 -16 -13 -26 -4 -25 21 -10 30 35 20z m-44 -32 c0
-8 -8 -13 -18 -11 -9 2 -25 -2 -35 -8 -14 -9 -13 -10 8 -5 l25 6 -25 -20 c-28
-23 -48 -28 -33 -8 6 6 9 20 8 29 -2 10 2 15 10 12 7 -3 19 2 26 10 16 18 34
15 34 -5z m-1410 -99 c-3 -5 -1 -10 6 -10 7 0 10 -2 7 -5 -3 -3 -13 -2 -22 1
-14 5 -15 9 -4 15 17 11 20 11 13 -1z m1245 -4 c0 -2 -9 -6 -20 -9 -11 -3 -18
-1 -14 4 5 9 34 13 34 5z m-1197 -19 c-4 -6 0 -8 8 -5 50 21 52 21 45 10 -4
-7 -1 -12 8 -12 9 0 16 -7 16 -15 0 -19 -9 -19 -53 0 -39 16 -54 32 -32 32 8
0 11 -5 8 -10z m1136 -7 c-26 -15 -192 -61 -203 -56 -6 2 -3 5 7 5 10 1 16 5
13 10 -4 5 2 7 12 5 9 -3 51 6 92 19 81 27 104 32 79 17z m-942 -54 c9 -9 -27
-6 -57 5 -21 7 -18 8 13 5 21 -2 41 -7 44 -10z m40 -12 c-3 -3 -12 -4 -19 -1
-8 3 -5 6 6 6 11 1 17 -2 13 -5z m54 -12 c-13 -2 -27 0 -32 5 -6 6 3 7 23 4
28 -4 29 -6 9 -9z m626 12 c-3 -3 -12 -4 -19 -1 -8 3 -5 6 6 6 11 1 17 -2 13
-5z m-60 -10 c-3 -3 -12 -4 -19 -1 -8 3 -5 6 6 6 11 1 17 -2 13 -5z m-494 -11
c-7 -2 -21 -2 -30 0 -10 3 -4 5 12 5 17 0 24 -2 18 -5z m435 0 c-10 -2 -26 -2
-35 0 -10 3 -2 5 17 5 19 0 27 -2 18 -5z m-155 -10 c-45 -2 -122 -2 -170 0
-48 1 -11 3 82 3 94 0 133 -2 88 -3z"/>
<path d="M6028 1783 c7 -3 16 -2 19 1 4 3 -2 6 -13 5 -11 0 -14 -3 -6 -6z"/>
<path d="M4520 1380 c8 -5 20 -10 25 -10 6 0 3 5 -5 10 -8 5 -19 10 -25 10 -5
0 -3 -5 5 -10z"/>
</g>
</svg>
